<svg width="48" height="48" viewBox="0 0 48 48" fill="none" xmlns="http://www.w3.org/2000/svg"><path fill-rule="evenodd" clip-rule="evenodd" d="M46.062 7.938a1.5 1.5 0 0 1 0 2.124l-21 21a1.5 1.5 0 0 1-2.124 0l-9-9a1.502 1.502 0 0 1 2.124-2.124L24 27.878l19.938-19.94a1.5 1.5 0 0 1 2.124 0" fill="currentColor"/><path fill-rule="evenodd" clip-rule="evenodd" d="M24 7.5A16.5 16.5 0 1 0 40.5 24a1.5 1.5 0 0 1 3 0 19.5 19.5 0 1 1-9.75-16.89 1.5 1.5 0 1 1-1.5 2.595A16.4 16.4 0 0 0 24 7.5" fill="currentColor"/></svg>